<svg width="132" height="132" viewBox="0 0 132 132" fill="none" xmlns="http://www.w3.org/2000/svg">
<g clip-path="url(#clip0_284_418)">
<path d="M65.8946 117.376C94.3265 117.376 117.375 94.327 117.375 65.8951C117.375 37.4632 94.3265 14.4146 65.8946 14.4146C37.4627 14.4146 14.4141 37.4632 14.4141 65.8951C14.4141 94.327 37.4627 117.376 65.8946 117.376Z" fill="white"/>
<path d="M65.8947 105.02C87.503 105.02 105.02 87.5032 105.02 65.895C105.02 44.2867 87.503 26.7698 65.8947 26.7698C44.2865 26.7698 26.7695 44.2867 26.7695 65.895C26.7695 87.5032 44.2865 105.02 65.8947 105.02Z" fill="#F8598F"/>
<path d="M74.6324 57.1578C76.9497 59.4751 78.2515 62.618 78.2515 65.8951C78.2515 69.1722 76.9497 72.3151 74.6324 74.6324C72.3151 76.9497 69.1722 78.2515 65.8951 78.2515C62.618 78.2515 59.4751 76.9497 57.1578 74.6324L38.2295 93.5608C41.8599 97.2062 46.1736 100.1 50.9237 102.076C55.6739 104.052 60.7671 105.072 65.9119 105.078C71.0567 105.083 76.1521 104.074 80.9063 102.107C85.6605 100.141 89.9802 97.2561 93.6181 93.6181C97.2561 89.9802 100.141 85.6605 102.107 80.9063C104.074 76.1521 105.083 71.0567 105.078 65.9119C105.072 60.7671 104.052 55.6739 102.076 50.9237C100.1 46.1736 97.2062 41.8599 93.5608 38.2295L74.6324 57.1578Z" fill="#F8598F"/>
<path d="M65.8949 92.665C80.6795 92.665 92.6647 80.6797 92.6647 65.8951C92.6647 51.1105 80.6795 39.1252 65.8949 39.1252C51.1103 39.1252 39.125 51.1105 39.125 65.8951C39.125 80.6797 51.1103 92.665 65.8949 92.665Z" fill="white"/>
<path d="M65.8952 92.665C71.1895 92.6647 76.3649 91.0945 80.7669 88.153C85.1689 85.2114 88.5998 81.0307 90.6258 76.1393C92.6518 71.248 93.1819 65.8657 92.1491 60.673C91.1164 55.4804 88.567 50.7106 84.8235 46.9668L46.9668 84.8235C49.4495 87.3134 52.3998 89.288 55.6482 90.6337C58.8967 91.9794 62.379 92.6698 65.8952 92.665Z" fill="white"/>
<path d="M65.8954 78.2504C72.719 78.2504 78.2507 72.7188 78.2507 65.8951C78.2507 59.0715 72.719 53.5398 65.8954 53.5398C59.0717 53.5398 53.54 59.0715 53.54 65.8951C53.54 72.7188 59.0717 78.2504 65.8954 78.2504Z" fill="#F8598F"/>
<path d="M65.8955 78.2503C68.3393 78.2506 70.7284 77.5261 72.7605 76.1685C74.7926 74.8109 76.3764 72.8812 77.3117 70.6234C78.247 68.3655 78.4917 65.8811 78.0148 63.4842C77.5379 61.0873 76.361 58.8856 74.6328 57.1577L57.1582 74.6323C58.3046 75.7809 59.6666 76.6918 61.166 77.3127C62.6654 77.9335 64.2726 78.2522 65.8955 78.2503Z" fill="#F8598F"/>
<path d="M65.8948 70.0135C68.1694 70.0135 70.0133 68.1696 70.0133 65.8951C70.0133 63.6205 68.1694 61.7766 65.8948 61.7766C63.6203 61.7766 61.7764 63.6205 61.7764 65.8951C61.7764 68.1696 63.6203 70.0135 65.8948 70.0135Z" fill="white"/>
<path d="M110.255 35.9499L109.139 37.066H105.999C113.261 47.1609 116.458 59.6196 114.953 71.964C113.448 84.3084 107.352 95.634 97.8764 103.688C88.4013 111.743 76.2416 115.935 63.816 115.433C51.3903 114.93 39.6091 109.768 30.8157 100.975C22.0222 92.1815 16.8608 80.4003 16.3581 67.9747C15.8553 55.549 20.048 43.3894 28.1023 33.9142C36.1566 24.4391 47.4822 18.3427 59.8267 16.8377C72.1711 15.3327 84.6297 18.5294 94.7246 25.7918V22.6515L95.8407 21.5354C84.7976 14.0769 71.3718 11.0006 58.1829 12.9066C44.9941 14.8127 32.9887 21.5645 24.5092 31.8445C16.0298 42.1244 11.6848 55.1949 12.3221 68.5055C12.9594 81.8161 18.5333 94.4117 27.9561 103.835C37.3789 113.257 49.9745 118.831 63.2851 119.469C76.5957 120.106 89.6662 115.761 99.9462 107.281C110.226 98.802 116.978 86.7965 118.884 73.6077C120.79 60.4189 117.714 46.993 110.255 35.9499Z" fill="#F8598F"/>
<path d="M107.103 25.1423H120.811L107.396 38.5574H99.1592L70.3301 67.3865H64.959L65.9219 62.0828L93.5498 33.2253L93.6885 33.0808V24.8503L107.103 11.4363V25.1423Z" fill="#F8598F" stroke="white"/>
<path d="M66.5557 66.2388L69.8504 66.2388L84.3454 52.6138L90.523 52.6012L100.798 42.2842L90.4811 42.2842L90.4811 32.0091L80.206 42.3261L80.2186 48.5038L66.5557 62.9441L66.5557 66.2388Z" fill="#F8598F" stroke="white"/>
</g>
<defs>
<clipPath id="clip0_284_418">
<rect width="131.79" height="131.79" fill="white"/>
</clipPath>
</defs>
</svg>
