<svg width="124" height="99" viewBox="0 0 124 99" fill="none" xmlns="http://www.w3.org/2000/svg">
<path d="M123.156 0.794935L101.9 20.8553L122.233 55.0795L123.156 53.932V0.794935ZM0.632812 1.0876V59.233C1.78597 59.3828 3.17157 59.4654 4.56978 59.4801C7.62515 59.5123 10.1436 59.3128 11.5583 59.1856L25.1118 24.8906L0.632812 1.0876ZM100.802 28.0788L98.9899 29.2515C98.9512 29.2765 97.6097 30.1102 97.2156 30.3558L94.4858 32.0083L94.5244 32.0315C93.2596 32.8184 92.9079 33.0397 91.4724 33.9311C90.744 34.3834 90.7259 34.3939 90.0351 34.823C84.8124 32.0155 79.1454 29.8577 72.5322 28.1609C64.215 30.6737 55.4042 34.3097 46.6062 37.7214C50.2587 42.1196 54.3179 43.5518 58.4068 43.603C63.1481 43.6622 67.995 41.6004 71.333 39.2905L73.2378 37.9726L75.1492 40.7345L104.867 62.1838L116.479 54.4651L100.802 28.0788ZM28.555 28.7841L16.8775 58.3305L21.1632 61.6261L29.0899 52.6414L29.7249 51.922L30.6825 51.8623C31.0686 51.8381 31.4495 51.8267 31.8253 51.8288C34.4539 51.8458 36.804 52.5279 38.5667 54.0837C39.8723 55.2348 40.7402 56.7673 41.2437 58.5419L41.8306 58.5053C44.9181 58.3123 47.6999 58.9493 49.7148 60.7267C51.7295 62.5046 52.7084 65.1857 52.9014 68.2737L52.9195 68.5517C54.5771 68.8647 56.0611 69.5175 57.2678 70.5821C59.2827 72.3597 60.2613 75.0403 60.4544 78.1284L60.5051 78.9315C60.6704 78.9835 60.8333 79.0406 60.9942 79.1008L61.5175 78.3665L62.9255 76.3901L63.6495 75.3734L65.5363 76.7178L80.8332 87.6152C82.497 87.2049 83.4888 86.5663 84.0404 85.7912C84.5931 85.016 84.8726 83.8684 84.7159 82.1601L66.3739 69.0248L64.4902 67.676L65.8261 65.8109L67.543 63.4003L69.4298 64.7447L90.1082 79.4749C91.772 79.0648 92.7646 78.4262 93.3162 77.6512C93.868 76.8764 94.1476 75.7317 93.9919 74.0264L70.2084 57.1537L68.3191 55.8126L70.9997 52.034L72.8898 53.3745L96.6773 70.2511C98.3427 69.8408 99.3355 69.2022 99.8879 68.4266C100.441 67.6506 100.72 66.5023 100.562 64.7908L72.1348 44.2733C68.3626 46.5096 63.5371 48.3011 58.3491 48.2362C52.2778 48.1603 45.7835 45.2591 41.0061 37.9273C40.8172 37.6373 40.6956 37.3088 40.6503 36.9657C40.605 36.6226 40.6371 36.2737 40.7443 35.9446C40.8516 35.6156 41.0311 35.3147 41.2699 35.0642C41.5087 34.8137 41.8005 34.6198 42.124 34.4969C45.4738 33.224 48.8584 31.8791 52.251 30.5447L28.5556 28.7856L28.555 28.7841ZM31.876 56.4857L19.633 70.3623C19.8716 72.0987 20.4155 73.1788 21.1483 73.8254C21.8811 74.472 23.0209 74.8769 24.7735 74.8972L37.0164 61.0212C36.7778 59.2845 36.2339 58.2039 35.501 57.5573C34.7682 56.9107 33.6287 56.5061 31.8758 56.486L31.876 56.4857ZM43.0236 63.1293L29.1978 78.7999C29.4361 80.5366 29.9803 81.6172 30.7128 82.2638C31.4464 82.9099 32.5855 83.3148 34.3384 83.3346L48.1642 67.6645C47.9259 65.9275 47.3817 64.8474 46.6489 64.2006C45.9163 63.554 44.7768 63.1491 43.0239 63.1288L43.0236 63.1293ZM50.5758 72.9842L38.3338 86.8608C38.5724 88.5972 39.1163 89.6775 39.8491 90.3244C40.5822 90.971 41.7217 91.3753 43.4743 91.3957L55.7169 77.5207C55.4783 75.7832 54.9344 74.7029 54.2016 74.056C53.4688 73.4094 52.3292 73.005 50.5763 72.9847L50.5758 72.9842ZM56.9342 83.0581L46.9485 94.4559C47.1866 96.196 47.7305 97.2776 48.4641 97.9247C49.1964 98.5708 50.3346 98.9754 52.085 98.9962L62.0711 87.5985C61.8328 85.8589 61.2886 84.7773 60.555 84.1297C59.823 83.4836 58.6848 83.0795 56.9344 83.0584L56.9342 83.0581ZM66.0313 84.2911C66.4673 85.4803 66.7193 86.7982 66.8071 88.2016L66.8668 89.155L64.7363 91.5869L71.6151 96.4871C73.279 96.0768 74.2705 95.4382 74.8223 94.6631C75.3745 93.8884 75.6545 92.7419 75.4988 91.0356L66.0315 84.2916L66.0313 84.2911Z" fill="#F8598F"/>
</svg>
