<svg width="101" height="100" viewBox="0 0 101 100" fill="none" xmlns="http://www.w3.org/2000/svg">
<g clip-path="url(#clip0_284_415)">
<path fill-rule="evenodd" clip-rule="evenodd" d="M63.3945 100L75.8945 87.5V62.5L86.2502 52.1446C95.6264 42.7678 100.895 30.0501 100.895 16.7893V0H84.1052C70.8445 0 58.1267 5.26784 48.7498 14.6447L38.3945 25H13.3945L0.894531 37.5L63.3945 100ZM66.5195 43.75C71.697 43.75 75.8945 39.5527 75.8945 34.375C75.8945 29.1973 71.697 25 66.5195 25C61.3418 25 57.1445 29.1973 57.1445 34.375C57.1445 39.5527 61.3418 43.75 66.5195 43.75Z" fill="#F8598F"/>
<path d="M31.6908 85.9739L14.921 69.2039L0.894531 93.7501L7.14453 100L31.6908 85.9739Z" fill="#F8598F"/>
</g>
<defs>
<clipPath id="clip0_284_415">
<rect width="100" height="100" fill="white" transform="translate(0.894531)"/>
</clipPath>
</defs>
</svg>
